<?xml version="1.0" encoding="utf-8"?>
<!-- Generator: Adobe Illustrator 19.2.0, SVG Export Plug-In . SVG Version: 6.00 Build 0)  -->
<svg version="1.1" id="Layer_1" xmlns="http://www.w3.org/2000/svg" xmlns:xlink="http://www.w3.org/1999/xlink" x="0px" y="0px"
	 viewBox="0 0 72 74" style="enable-background:new 0 0 72 74;" xml:space="preserve">
<style type="text/css">
	.st0{fill:#FFFFFF;}
</style>
<title>Artboard 7</title>
<path class="st0" d="M56,33.6h-4.2l-8.5-19.9c-0.3-0.8-1.2-1.1-2-0.8c-0.8,0.3-1.1,1.2-0.8,2l8,18.7H20.9l8-18.7
	c0.3-0.8,0-1.6-0.8-2c-0.8-0.3-1.6,0-2,0.8l-8.5,19.9h-4.3c-2.5,0-4.5,2-4.5,4.5c0,0.3,0,0.6,0.1,0.8l3.8,19.9
	c0.4,2.1,2.3,3.6,4.4,3.7h34.9c2.2,0,4-1.5,4.4-3.7l3.8-19.9c0.5-2.4-1.1-4.8-3.6-5.3C56.6,33.6,56.3,33.6,56,33.6z M42.8,36.6
	l-1.1,5.6h-14l-1.1-5.6H42.8z M12.7,42.2l-0.7-3.8c-0.1-0.4,0-0.9,0.3-1.2c0.3-0.3,0.7-0.5,1.2-0.5h3l-0.8,1.8c-0.3,0.8,0,1.6,0.8,2
	c0.8,0.3,1.6,0,2-0.8l1.3-3h3.8l1.1,5.6L12.7,42.2z M13.3,45.2h11.9l1.1,5.6h-12L13.3,45.2z M17.3,59.5c-0.7,0-1.3-0.5-1.5-1.2
	l-0.9-4.4h12l1.1,5.6L17.3,59.5z M38.3,59.5h-7.2L30,53.8h9.3L38.3,59.5z M40,50.8H29.4l-1.1-5.6H41L40,50.8z M53.7,58.2
	c-0.1,0.7-0.8,1.2-1.5,1.2h-11l1.1-5.6h12.1L53.7,58.2z M55,50.8H43l1.1-5.6h12L55,50.8z M57.4,38.3l-0.7,3.8h-12l1.1-5.6h4l1.3,3
	c0.3,0.8,1.2,1.1,2,0.8s1.1-1.2,0.8-2l0,0l-0.8-1.8H56c0.4,0,0.9,0.2,1.2,0.5C57.4,37.4,57.5,37.9,57.4,38.3L57.4,38.3z"/>
<text transform="matrix(1 0 0 1 -16 108)" style="font-family:'Arial-BoldMT'; font-size:5px;">Created by Bernar Novalyi</text>
<text transform="matrix(1 0 0 1 -16 113)" style="font-family:'Arial-BoldMT'; font-size:5px;">from the Noun Project</text>
</svg>
