<?xml version="1.0" encoding="utf-8"?>
<!-- Generator: Adobe Illustrator 19.2.0, SVG Export Plug-In . SVG Version: 6.00 Build 0)  -->
<svg version="1.1" id="Layer_1" xmlns="http://www.w3.org/2000/svg" xmlns:xlink="http://www.w3.org/1999/xlink" x="0px" y="0px"
	 viewBox="0 0 90 80" style="enable-background:new 0 0 90 80;" xml:space="preserve">
<style type="text/css">
	.st0{fill:#E8E8E8;}
	.st1{fill:#99B898;}
</style>
<polygon class="st0" points="-6.3,-9.7 92.1,-2.5 96.6,82.7 -0.7,82 "/>
<g>
	<path class="st1" d="M67.8,50.4H22.1c-2.8,0-5-2.2-5-5V16.6c0-2.8,2.2-5,5-5h45.7c2.8,0,5,2.2,5,5v28.9
		C72.8,48.2,70.5,50.4,67.8,50.4z M22.1,13.6c-1.7,0-3,1.3-3,3v28.9c0,1.7,1.3,3,3,3h45.7c1.7,0,3-1.3,3-3V16.6c0-1.7-1.3-3-3-3
		H22.1z"/>
	<rect x="18.1" y="20.6" class="st1" width="52.9" height="2"/>
	<rect x="18.1" y="25.8" class="st1" width="52.9" height="2"/>
	<path class="st1" d="M35,35.5H23.3c-0.6,0-1-0.4-1-1s0.4-1,1-1H35c0.6,0,1,0.4,1,1S35.7,35.5,35,35.5z"/>
	<path class="st1" d="M31.4,40.8h-8c-0.6,0-1-0.4-1-1s0.4-1,1-1h8c0.6,0,1,0.4,1,1S31.9,40.8,31.4,40.8z"/>
	<path class="st1" d="M47,35.5h-6.5c-0.6,0-1-0.4-1-1s0.4-1,1-1H47c0.6,0,1,0.4,1,1S47.7,35.5,47,35.5z"/>
</g>
<g>
	<path d="M10.6,62.3c0-0.6,0.1-1.1,0.3-1.7c0.2-0.6,0.5-1.1,0.9-1.5s0.9-0.8,1.4-1.1c0.6-0.3,1.2-0.4,1.9-0.4c0.8,0,1.6,0.2,2.2,0.6
		s1,0.9,1.3,1.5L17.8,60c-0.2-0.3-0.3-0.6-0.5-0.8s-0.4-0.4-0.7-0.5s-0.5-0.2-0.8-0.3s-0.5-0.1-0.8-0.1c-0.6,0-1.1,0.1-1.5,0.3
		s-0.8,0.5-1.1,0.9s-0.5,0.8-0.7,1.3s-0.2,0.9-0.2,1.4s0.1,1,0.3,1.5s0.4,0.9,0.7,1.3s0.7,0.7,1.1,0.9s0.9,0.3,1.4,0.3
		c0.3,0,0.5,0,0.8-0.1s0.6-0.2,0.8-0.3c0.3-0.1,0.5-0.3,0.7-0.5s0.4-0.5,0.6-0.8l0.8,0.4c-0.2,0.4-0.4,0.7-0.6,0.9
		c-0.3,0.3-0.6,0.5-0.9,0.7s-0.7,0.3-1.1,0.4S15.4,67,15,67c-0.6,0-1.2-0.1-1.8-0.4c-0.5-0.3-1-0.7-1.4-1.1c-0.4-0.5-0.7-1-0.9-1.6
		C10.7,63.4,10.6,62.9,10.6,62.3z"/>
	<path d="M23.6,60.9c-0.6,0-1.1,0.2-1.6,0.5s-0.8,0.8-1,1.3V67h-0.9v-6.9H21v1.7c0.2-0.5,0.6-0.9,0.9-1.2c0.4-0.3,0.8-0.5,1.3-0.5
		c0.1,0,0.2,0,0.2,0c0.1,0,0.1,0,0.2,0V60.9z"/>
	<path d="M27.9,67.2c-0.5,0-1-0.1-1.4-0.3s-0.8-0.5-1.1-0.8c-0.3-0.3-0.6-0.7-0.7-1.2s-0.3-0.9-0.3-1.4s0.1-0.9,0.3-1.4
		s0.4-0.8,0.7-1.1c0.3-0.3,0.7-0.6,1.1-0.8s0.9-0.3,1.4-0.3s1,0.1,1.4,0.3s0.8,0.5,1.1,0.8c0.3,0.3,0.5,0.7,0.7,1.1s0.3,0.9,0.3,1.4
		c0,0.1,0,0.1,0,0.2s0,0.1,0,0.1h-5.9c0,0.4,0.1,0.7,0.3,1c0.1,0.3,0.3,0.6,0.6,0.8c0.2,0.2,0.5,0.4,0.8,0.5s0.6,0.2,1,0.2
		c0.2,0,0.5,0,0.7-0.1s0.4-0.1,0.6-0.3c0.2-0.1,0.4-0.2,0.5-0.4c0.1-0.2,0.3-0.3,0.3-0.5l0.8,0.2c-0.1,0.3-0.3,0.5-0.5,0.7
		s-0.4,0.4-0.7,0.5c-0.3,0.2-0.5,0.3-0.9,0.4C28.5,67.1,28.2,67.2,27.9,67.2z M30.4,63.2c0-0.4-0.1-0.7-0.3-1
		c-0.1-0.3-0.3-0.6-0.6-0.8S29,61,28.7,60.9s-0.6-0.2-1-0.2c-0.3,0-0.7,0.1-1,0.2s-0.6,0.3-0.8,0.5s-0.4,0.5-0.5,0.8s-0.2,0.6-0.2,1
		H30.4z"/>
	<path d="M35.6,67.2c-0.5,0-0.9-0.1-1.3-0.3c-0.4-0.2-0.8-0.5-1.1-0.8s-0.5-0.7-0.7-1.1s-0.2-0.9-0.2-1.4s0.1-1,0.2-1.4
		s0.4-0.8,0.7-1.2c0.3-0.3,0.6-0.6,1-0.8s0.8-0.3,1.3-0.3c0.6,0,1.1,0.2,1.6,0.5s0.8,0.7,1.1,1.1v-4.2h0.9v8.6
		c0,0.2,0.1,0.4,0.3,0.4v0.8c-0.2,0-0.3,0-0.4,0c-0.2,0-0.4-0.1-0.5-0.2s-0.2-0.3-0.2-0.5v-0.7c-0.3,0.5-0.7,0.8-1.1,1.1
		S36.1,67.2,35.6,67.2z M35.7,66.4c0.2,0,0.5,0,0.7-0.1c0.3-0.1,0.5-0.2,0.7-0.4c0.2-0.2,0.4-0.3,0.6-0.5c0.2-0.2,0.3-0.4,0.3-0.7
		v-2.1c-0.1-0.2-0.2-0.5-0.4-0.7s-0.4-0.4-0.6-0.6c-0.2-0.2-0.4-0.3-0.7-0.4s-0.5-0.1-0.7-0.1c-0.4,0-0.7,0.1-1,0.2
		c-0.3,0.2-0.6,0.4-0.8,0.6c-0.2,0.3-0.4,0.6-0.5,0.9s-0.2,0.7-0.2,1c0,0.4,0.1,0.7,0.2,1.1s0.3,0.6,0.5,0.9s0.5,0.5,0.8,0.6
		C35,66.3,35.4,66.4,35.7,66.4z"/>
	<path d="M41,58.6v-1.3h0.9v1.3H41z M41,67.1v-6.9h0.9v6.9H41z"/>
	<path d="M47.2,66.7c-0.1,0-0.1,0.1-0.2,0.1c-0.1,0-0.2,0.1-0.4,0.1S46.3,67,46.1,67s-0.3,0.1-0.5,0.1s-0.4,0-0.6-0.1
		s-0.3-0.1-0.5-0.2c-0.1-0.1-0.2-0.3-0.3-0.4c-0.1-0.2-0.1-0.4-0.1-0.6v-5h-1v-0.7h1v-2.3H45v2.3h1.6v0.7H45v4.7
		c0,0.3,0.1,0.4,0.3,0.6c0.2,0.1,0.4,0.2,0.6,0.2c0.3,0,0.5,0,0.7-0.1s0.3-0.1,0.4-0.2L47.2,66.7z"/>
	<path d="M51.3,62.3c0-0.6,0.1-1.1,0.3-1.7c0.2-0.6,0.5-1.1,0.9-1.5s0.9-0.8,1.4-1.1c0.6-0.3,1.2-0.4,1.9-0.4c0.8,0,1.6,0.2,2.2,0.6
		s1,0.9,1.3,1.5L58.5,60c-0.2-0.3-0.3-0.6-0.5-0.8s-0.4-0.4-0.7-0.5s-0.5-0.2-0.8-0.3s-0.5-0.1-0.8-0.1c-0.6,0-1.1,0.1-1.5,0.3
		s-0.8,0.5-1.1,0.9s-0.5,0.8-0.7,1.3s-0.2,0.9-0.2,1.4s0.1,1,0.3,1.5s0.4,0.9,0.7,1.3s0.7,0.7,1.1,0.9s0.9,0.3,1.4,0.3
		c0.3,0,0.5,0,0.8-0.1s0.6-0.2,0.8-0.3c0.3-0.1,0.5-0.3,0.7-0.5s0.4-0.5,0.6-0.8l0.8,0.4c-0.2,0.4-0.4,0.7-0.6,0.9
		c-0.3,0.3-0.6,0.5-0.9,0.7c-0.3,0.2-0.7,0.3-1.1,0.4C56.4,67,56.1,67,55.7,67c-0.6,0-1.2-0.1-1.8-0.4c-0.5-0.3-1-0.7-1.4-1.1
		c-0.4-0.5-0.7-1-0.9-1.6C51.4,63.4,51.3,62.9,51.3,62.3z"/>
	<path d="M62.7,67.2c-0.4,0-0.7-0.1-1-0.2s-0.5-0.3-0.8-0.5c-0.2-0.2-0.4-0.4-0.5-0.7c-0.1-0.3-0.2-0.5-0.2-0.8s0.1-0.6,0.2-0.9
		s0.3-0.5,0.6-0.7s0.6-0.3,0.9-0.4c0.4-0.1,0.8-0.2,1.2-0.2c0.3,0,0.7,0,1.1,0.1s0.7,0.2,1,0.3v-0.6c0-0.6-0.2-1.1-0.5-1.5
		c-0.4-0.4-0.8-0.5-1.4-0.5c-0.4,0-0.7,0.1-1.1,0.2s-0.7,0.3-1.1,0.6l-0.3-0.6c0.5-0.3,0.9-0.5,1.3-0.7c0.4-0.2,0.9-0.2,1.3-0.2
		c0.8,0,1.5,0.2,2,0.7s0.7,1.2,0.7,2v3.1c0,0.2,0.1,0.4,0.3,0.4v0.8c-0.1,0-0.1,0-0.2,0s-0.1,0-0.2,0c-0.2,0-0.3-0.1-0.5-0.2
		c-0.1-0.1-0.2-0.3-0.2-0.5v-0.5c-0.3,0.4-0.7,0.7-1.2,1C63.7,67.1,63.2,67.2,62.7,67.2z M62.9,66.5c0.4,0,0.8-0.1,1.2-0.3
		c0.4-0.2,0.7-0.4,0.9-0.7c0.1-0.1,0.1-0.2,0.2-0.3c0-0.1,0.1-0.2,0.1-0.3v-1.1c-0.3-0.1-0.6-0.2-0.9-0.3s-0.6-0.1-1-0.1
		c-0.6,0-1.2,0.1-1.6,0.4c-0.4,0.3-0.6,0.6-0.6,1.1c0,0.2,0,0.4,0.1,0.5c0.1,0.2,0.2,0.3,0.3,0.5c0.1,0.1,0.3,0.3,0.5,0.3
		S62.6,66.5,62.9,66.5z"/>
	<path d="M71.6,60.9c-0.6,0-1.1,0.2-1.6,0.5s-0.8,0.8-1,1.3V67h-0.9v-6.9H69v1.7c0.2-0.5,0.6-0.9,0.9-1.2c0.4-0.3,0.8-0.5,1.3-0.5
		c0.1,0,0.2,0,0.2,0c0.1,0,0.1,0,0.2,0V60.9z"/>
	<path d="M75.4,67.2c-0.5,0-0.9-0.1-1.3-0.3c-0.4-0.2-0.8-0.5-1.1-0.8c-0.3-0.3-0.5-0.7-0.7-1.1s-0.2-0.9-0.2-1.4s0.1-1,0.2-1.4
		s0.4-0.8,0.7-1.2c0.3-0.3,0.6-0.6,1-0.8s0.8-0.3,1.3-0.3c0.6,0,1.1,0.2,1.6,0.5s0.8,0.7,1.1,1.1v-4.2h0.9v8.6
		c0,0.2,0.1,0.4,0.3,0.4v0.8c-0.2,0-0.3,0-0.4,0c-0.2,0-0.4-0.1-0.5-0.2s-0.2-0.3-0.2-0.5v-0.7c-0.3,0.5-0.7,0.8-1.1,1.1
		S75.9,67.2,75.4,67.2z M75.6,66.4c0.2,0,0.5,0,0.7-0.1c0.3-0.1,0.5-0.2,0.7-0.4c0.2-0.2,0.4-0.3,0.6-0.5s0.3-0.4,0.3-0.7v-2.1
		c-0.1-0.2-0.2-0.5-0.4-0.7s-0.4-0.4-0.6-0.6c-0.2-0.2-0.4-0.3-0.7-0.4s-0.5-0.1-0.7-0.1c-0.4,0-0.7,0.1-1,0.2
		c-0.3,0.2-0.6,0.4-0.8,0.6c-0.2,0.3-0.4,0.6-0.5,0.9s-0.2,0.7-0.2,1c0,0.4,0.1,0.7,0.2,1.1s0.3,0.6,0.5,0.9s0.5,0.5,0.8,0.6
		C74.9,66.3,75.2,66.4,75.6,66.4z"/>
</g>
</svg>
