<?xml version="1.0" encoding="utf-8"?>
<!-- Generator: Adobe Illustrator 19.2.0, SVG Export Plug-In . SVG Version: 6.00 Build 0)  -->
<svg version="1.1" id="Layer_1" xmlns="http://www.w3.org/2000/svg" xmlns:xlink="http://www.w3.org/1999/xlink" x="0px" y="0px"
	 viewBox="0 0 48 48.6" style="enable-background:new 0 0 48 48.6;" xml:space="preserve">
<style type="text/css">
	.st0{fill:#99B89B;}
</style>
<title>Png 48px Solid - 70 Basic Icons</title>
<g>
	<path class="st0" d="M24,3C12.4,3,3,12.4,3,24s9.4,21,21,21s21-9.4,21-21S35.6,3,24,3z M34.4,21.5l-10.6,10c-0.8,0.7-2,0.7-2.8-0.1
		l-5.4-5.5c-0.8-0.8-0.8-2.1,0-2.8c0.8-0.7,2.1-0.8,2.8,0l4,4.1l9.2-8.6c0.9-0.6,2.1-0.4,2.8,0.4C35,19.7,35,20.7,34.4,21.5z"/>
</g>
</svg>
