<?xml version="1.0" encoding="utf-8"?>
<!-- Generator: Adobe Illustrator 19.2.0, SVG Export Plug-In . SVG Version: 6.00 Build 0)  -->
<svg version="1.1" id="Layer_1" xmlns="http://www.w3.org/2000/svg" xmlns:xlink="http://www.w3.org/1999/xlink" x="0px" y="0px"
	 viewBox="0 0 100 84" style="enable-background:new 0 0 100 84;" xml:space="preserve">
<style type="text/css">
	.st0{fill:#FFFFFF;}
</style>
<path class="st0" d="M93.1,35.9c-0.5-0.9-1.5-1.4-2.6-1.4h-17L56.6,9.1c-0.8-1.1-2.3-1.5-3.5-0.7s-1.5,2.3-0.7,3.5l15.1,22.6h-35
	l15.1-22.6c0.8-1.1,0.5-2.7-0.7-3.5S44.2,8,43.4,9.1L26.5,34.5h-17c-1,0-2,0.5-2.6,1.4s-0.6,2-0.1,2.9l18,36c0.5,1,1.5,1.7,2.7,1.7
	h45c1.1,0,2.2-0.6,2.7-1.7l18-36C93.6,37.9,93.6,36.8,93.1,35.9z M71.5,35.5c1.1,0,2,0.9,2,2s-0.9,2-2,2s-2-0.9-2-2
	S70.4,35.5,71.5,35.5z M58.8,40.5h11.4L69.1,45H58.4L58.8,40.5z M58.1,48h10.2l-1.5,6h-9.2L58.1,48z M42.4,54h-9.2l-1.5-6h10.2
	L42.4,54z M41.2,40.5l0.4,4.5H30.9l-1.1-4.5H41.2z M28.6,35.4c1.1,0,2,0.9,2,2s-0.9,2-2,2c-1.1,0-2-0.9-2-2S27.4,35.4,28.6,35.4z
	 M14.4,40.5h12.4l1.1,4.5H16.6L14.4,40.5z M18.1,48h10.5l1.5,6h-9L18.1,48z M22.6,57h8.2l1.5,6h-6.7L22.6,57z M29.4,70.5L27.1,66h6
	l1.1,4.5H29.4z M33.9,57h8.7l0.5,6h-7.7L33.9,57z M37.3,70.5L36.2,66h7.2l0.4,4.5H37.3z M53.2,70.5h-6.5L46.4,66h7.2L53.2,70.5z
	 M53.9,63h-7.7l-0.5-6h8.7L53.9,63z M54.6,54h-9.2l-0.5-6h10.2L54.6,54z M55.4,45H44.6l-0.4-4.5h11.5L55.4,45z M62.7,70.5h-6.4
	l0.4-4.5h7.2L62.7,70.5z M56.9,63l0.5-6h8.7l-1.5,6H56.9z M70.6,70.5h-4.8l1.1-4.5h6L70.6,70.5z M74.4,63h-6.7l1.5-6h8.2L74.4,63z
	 M78.9,54h-9l1.5-6h10.5L78.9,54z M83.4,45H72.2l1.1-4.5h12.3L83.4,45z"/>
<text transform="matrix(1 0 0 1 0 115)" style="font-family:'Arial-BoldMT'; font-size:5px;">Created by Matt Gray</text>
<text transform="matrix(1 0 0 1 0 120)" style="font-family:'Arial-BoldMT'; font-size:5px;">from the Noun Project</text>
</svg>
