<?xml version="1.0" encoding="utf-8"?>
<!-- Generator: Adobe Illustrator 19.2.0, SVG Export Plug-In . SVG Version: 6.00 Build 0)  -->
<svg version="1.1" id="Layer_1" xmlns="http://www.w3.org/2000/svg" xmlns:xlink="http://www.w3.org/1999/xlink" x="0px" y="0px"
	 viewBox="0 0 396.4 48.6" style="enable-background:new 0 0 396.4 48.6;" xml:space="preserve">
<style type="text/css">
	.st0{fill:none;stroke:#000000;stroke-width:0.5;stroke-miterlimit:10;}
	.st1{fill:none;stroke:#0C0C0C;stroke-width:0.5;stroke-miterlimit:10;}
	.st2{fill:#99B89B;}
	.st3{fill:none;stroke:#2A363B;stroke-width:0.5;stroke-miterlimit:10;}
	.st4{enable-background:new    ;}
	.st5{fill:#2A363B;}
	.st6{fill:#FFFFFF;}
</style>
<line class="st0" x1="209.3" y1="24.3" x2="306.7" y2="24"/>
<line class="st1" x1="89.4" y1="24" x2="183.4" y2="24.2"/>
<title>Png 48px Solid - 70 Basic Icons</title>
<g>
	<path class="st2" d="M74.7,9.3c-8.1,0-14.6,6.6-14.6,14.7s6.5,14.7,14.6,14.7S89.4,32.1,89.4,24S82.8,9.3,74.7,9.3z M82,22.2
		l-7.4,7c-0.6,0.5-1.4,0.5-2-0.1l-3.8-3.9c-0.6-0.6-0.6-1.5,0-2c0.6-0.5,1.5-0.6,2,0l2.8,2.9l6.4-6c0.6-0.4,1.5-0.3,2,0.3
		C82.4,21,82.4,21.7,82,22.2z"/>
</g>
<title>Png 48px Solid - 70 Basic Icons</title>
<ellipse class="st3" cx="321.5" cy="24" rx="14.8" ry="14.9"/>
<g class="st4">
	<path class="st5" d="M322.7,23.5c0.8,0.1,1.4,0.5,1.8,1c0.5,0.6,0.7,1.3,0.7,2.1c0,0.5-0.1,1-0.3,1.4s-0.4,0.8-0.8,1.1
		c-0.3,0.3-0.7,0.5-1.2,0.7c-0.5,0.2-1,0.2-1.5,0.2c-0.8,0-1.6-0.2-2.2-0.5c-0.6-0.4-1.1-0.9-1.4-1.5l0.6-0.5c0.2,0.5,0.6,1,1.1,1.3
		c0.5,0.3,1.1,0.5,1.9,0.5c0.9,0,1.6-0.2,2.1-0.7c0.5-0.5,0.8-1.1,0.8-1.9s-0.3-1.5-0.8-2c-0.5-0.5-1.3-0.7-2.2-0.7h-0.4v-0.7h0.4
		c0.9,0,1.6-0.2,2.1-0.6c0.5-0.4,0.7-1,0.7-1.6c0-0.4-0.1-0.7-0.2-1c-0.1-0.3-0.3-0.5-0.6-0.7c-0.2-0.2-0.5-0.4-0.8-0.5
		s-0.7-0.2-1.1-0.2c-0.7,0-1.3,0.2-1.8,0.5c-0.5,0.3-0.9,0.7-1.1,1.3l-0.6-0.5c0.1-0.3,0.3-0.6,0.5-0.8c0.2-0.2,0.5-0.5,0.8-0.6
		s0.6-0.3,1-0.4s0.7-0.1,1.1-0.1c0.5,0,1,0.1,1.4,0.2c0.4,0.1,0.8,0.4,1.1,0.6s0.5,0.6,0.7,1c0.2,0.4,0.3,0.8,0.3,1.2
		c0,0.3-0.1,0.7-0.2,1c-0.1,0.3-0.3,0.6-0.5,0.8c-0.2,0.2-0.4,0.4-0.7,0.6C323.4,23.4,323.1,23.5,322.7,23.5z"/>
</g>
<ellipse class="st2" cx="198.1" cy="24" rx="14.8" ry="14.9"/>
<g class="st4">
	<path class="st6" d="M194.7,28.2c0-0.3,0-0.7,0.1-1.1s0.2-0.8,0.4-1.2c0.2-0.4,0.5-0.8,0.8-1.1s0.9-0.7,1.5-1
		c0.3-0.1,0.6-0.3,0.9-0.4c0.4-0.2,0.7-0.3,1-0.5c0.3-0.2,0.6-0.4,0.8-0.7c0.2-0.3,0.3-0.6,0.3-1c0-0.2-0.1-0.5-0.2-0.7
		c-0.1-0.2-0.2-0.4-0.4-0.6c-0.2-0.2-0.4-0.3-0.7-0.4c-0.3-0.1-0.6-0.2-1-0.2c-0.4,0-0.8,0.1-1.1,0.2c-0.3,0.1-0.6,0.2-0.8,0.4
		s-0.4,0.3-0.6,0.5c-0.2,0.2-0.3,0.3-0.4,0.4l-0.6-0.6c0.1-0.1,0.3-0.3,0.5-0.5c0.2-0.2,0.5-0.4,0.8-0.5c0.3-0.2,0.6-0.3,1-0.4
		c0.4-0.1,0.8-0.2,1.2-0.2c0.5,0,0.9,0.1,1.3,0.2c0.4,0.1,0.7,0.3,1,0.6s0.5,0.5,0.6,0.8c0.1,0.3,0.2,0.7,0.2,1
		c0,0.5-0.1,0.9-0.3,1.2c-0.2,0.3-0.5,0.6-0.8,0.8c-0.3,0.2-0.6,0.4-1,0.6c-0.4,0.2-0.7,0.3-1,0.4c-0.5,0.2-1,0.4-1.3,0.7
		c-0.3,0.2-0.6,0.5-0.8,0.8c-0.2,0.3-0.4,0.6-0.4,0.9s-0.1,0.6-0.2,0.9h6v0.8H194.7z"/>
</g>
</svg>
