<?xml version="1.0" encoding="utf-8"?>
<!-- Generator: Adobe Illustrator 19.2.0, SVG Export Plug-In . SVG Version: 6.00 Build 0)  -->
<svg version="1.1" id="Layer_1" xmlns="http://www.w3.org/2000/svg" xmlns:xlink="http://www.w3.org/1999/xlink" x="0px" y="0px"
	 viewBox="0 0 396.4 48.6" style="enable-background:new 0 0 396.4 48.6;" xml:space="preserve">
<style type="text/css">
	.st0{fill:#2A363B;stroke:#000000;stroke-width:0.5;stroke-miterlimit:10;}
	.st1{fill:none;stroke:#0C0C0C;stroke-width:0.5;stroke-miterlimit:10;}
	.st2{fill:#99B89B;}
	.st3{fill:#FCFCFC;}
</style>
<line class="st0" x1="209.3" y1="24.5" x2="306.7" y2="24.2"/>
<line class="st1" x1="89.4" y1="24.2" x2="183.4" y2="24.5"/>
<title>Png 48px Solid - 70 Basic Icons</title>
<g>
	<path class="st2" d="M74.7,9.6c-8.1,0-14.6,6.5-14.6,14.6s6.5,14.6,14.6,14.6s14.6-6.5,14.6-14.6S82.8,9.6,74.7,9.6z M82,22.5
		l-7.4,7c-0.6,0.5-1.4,0.5-2-0.1l-3.8-3.8c-0.6-0.6-0.6-1.5,0-2c0.6-0.5,1.5-0.6,2,0l2.8,2.9l6.4-6c0.6-0.4,1.5-0.3,2,0.3
		C82.4,21.2,82.4,21.9,82,22.5z"/>
</g>
<title>Png 48px Solid - 70 Basic Icons</title>
<g>
	<circle id="XMLID_1_" class="st2" cx="321.5" cy="24.2" r="14.8"/>
	<g>
		<path class="st3" d="M322.7,23.8c0.8,0.1,1.4,0.5,1.8,1c0.5,0.6,0.7,1.2,0.7,2.1c0,0.5-0.1,1-0.3,1.4c-0.2,0.4-0.4,0.8-0.8,1
			s-0.7,0.5-1.2,0.7c-0.5,0.2-1,0.2-1.5,0.2c-0.8,0-1.6-0.2-2.2-0.5c-0.6-0.4-1.1-0.8-1.4-1.5l0.6-0.5c0.2,0.5,0.6,1,1.1,1.3
			c0.5,0.3,1.1,0.5,1.9,0.5c0.9,0,1.6-0.2,2.1-0.7s0.8-1.1,0.8-1.9c0-0.8-0.3-1.5-0.8-1.9c-0.5-0.5-1.3-0.7-2.2-0.7h-0.4v-0.7h0.4
			c0.9,0,1.6-0.2,2.1-0.6s0.7-1,0.7-1.6c0-0.4-0.1-0.7-0.2-1c-0.1-0.3-0.3-0.5-0.6-0.7c-0.2-0.2-0.5-0.4-0.8-0.5
			c-0.3-0.1-0.7-0.2-1.1-0.2c-0.7,0-1.3,0.2-1.8,0.5c-0.5,0.3-0.9,0.7-1.1,1.2l-0.6-0.5c0.1-0.3,0.3-0.6,0.5-0.8s0.5-0.5,0.8-0.6
			c0.3-0.2,0.6-0.3,1-0.4c0.4-0.1,0.7-0.1,1.1-0.1c0.5,0,1,0.1,1.4,0.2c0.4,0.1,0.8,0.4,1.1,0.6c0.3,0.3,0.5,0.6,0.7,1
			c0.2,0.4,0.3,0.8,0.3,1.2c0,0.3-0.1,0.7-0.2,1c-0.1,0.3-0.3,0.6-0.5,0.8c-0.2,0.2-0.4,0.4-0.7,0.6
			C323.4,23.6,323.1,23.7,322.7,23.8z"/>
	</g>
</g>
<g>
	<path class="st2" d="M198.1,9.9c-8.1,0-14.6,6.5-14.6,14.6s6.5,14.6,14.6,14.6c8.1,0,14.6-6.5,14.6-14.6S206.1,9.9,198.1,9.9z
		 M205.3,22.8l-7.4,7c-0.6,0.5-1.4,0.5-2-0.1l-3.8-3.8c-0.6-0.6-0.6-1.5,0-2c0.6-0.5,1.5-0.6,2,0l2.8,2.9l6.4-6
		c0.6-0.4,1.5-0.3,2,0.3C205.7,21.5,205.7,22.2,205.3,22.8z"/>
</g>
</svg>
