<?xml version="1.0" encoding="utf-8"?>
<!-- Generator: Adobe Illustrator 19.2.0, SVG Export Plug-In . SVG Version: 6.00 Build 0)  -->
<svg version="1.1" id="Layer_1" xmlns="http://www.w3.org/2000/svg" xmlns:xlink="http://www.w3.org/1999/xlink" x="0px" y="0px"
	 viewBox="0 0 396.7 48.6" style="enable-background:new 0 0 396.7 48.6;" xml:space="preserve">
<style type="text/css">
	.st0{fill:none;stroke:#000000;stroke-width:0.5;stroke-miterlimit:10;}
	.st1{fill:none;stroke:#0C0C0C;stroke-width:0.5;stroke-miterlimit:10;}
	.st2{fill:none;stroke:#2A363B;stroke-width:0.5;stroke-miterlimit:10;}
	.st3{enable-background:new    ;}
	.st4{fill:#2A363B;}
	.st5{fill:#99B89B;}
	.st6{fill:#FFFFFF;}
</style>
<line class="st0" x1="213.1" y1="24.3" x2="306.9" y2="24"/>
<line class="st1" x1="89.7" y1="24" x2="183.6" y2="24.1"/>
<title>Png 48px Solid - 70 Basic Icons</title>
<title>Png 48px Solid - 70 Basic Icons</title>
<ellipse class="st2" cx="321.7" cy="24" rx="14.8" ry="14.9"/>
<g class="st3">
	<path class="st4" d="M322.9,23.5c0.8,0.1,1.4,0.5,1.8,1c0.5,0.6,0.7,1.3,0.7,2.1c0,0.5-0.1,1-0.3,1.4s-0.4,0.8-0.8,1.1
		c-0.3,0.3-0.7,0.5-1.2,0.7c-0.5,0.2-1,0.2-1.5,0.2c-0.8,0-1.6-0.2-2.2-0.5c-0.6-0.4-1.1-0.9-1.4-1.5l0.6-0.5c0.2,0.5,0.6,1,1.1,1.3
		c0.5,0.3,1.1,0.5,1.9,0.5c0.9,0,1.6-0.2,2.1-0.7c0.5-0.5,0.8-1.1,0.8-1.9s-0.3-1.5-0.8-2c-0.5-0.5-1.3-0.7-2.2-0.7h-0.4v-0.7h0.4
		c0.9,0,1.6-0.2,2.1-0.6c0.5-0.4,0.7-1,0.7-1.6c0-0.4-0.1-0.7-0.2-1c-0.1-0.3-0.3-0.5-0.6-0.7c-0.2-0.2-0.5-0.4-0.8-0.5
		c-0.3-0.1-0.7-0.2-1.1-0.2c-0.7,0-1.3,0.2-1.8,0.5c-0.5,0.3-0.9,0.7-1.1,1.3l-0.6-0.5c0.1-0.3,0.3-0.6,0.5-0.8
		c0.2-0.2,0.5-0.5,0.8-0.6s0.6-0.3,1-0.4c0.4-0.1,0.7-0.1,1.1-0.1c0.5,0,1,0.1,1.4,0.2c0.4,0.1,0.8,0.4,1.1,0.6
		c0.3,0.3,0.5,0.6,0.7,1c0.2,0.4,0.3,0.8,0.3,1.2c0,0.3-0.1,0.7-0.2,1c-0.1,0.3-0.3,0.6-0.5,0.8c-0.2,0.2-0.4,0.4-0.7,0.6
		C323.6,23.4,323.3,23.5,322.9,23.5z"/>
</g>
<ellipse class="st2" cx="198.3" cy="24" rx="14.8" ry="14.9"/>
<g class="st3">
	<path class="st4" d="M195,28.2c0-0.3,0-0.7,0.1-1.1c0.1-0.4,0.2-0.8,0.4-1.2c0.2-0.4,0.5-0.8,0.8-1.1c0.4-0.4,0.9-0.7,1.5-1
		c0.3-0.1,0.6-0.3,0.9-0.4c0.4-0.2,0.7-0.3,1-0.5c0.3-0.2,0.6-0.4,0.8-0.7c0.2-0.3,0.3-0.6,0.3-1c0-0.2-0.1-0.5-0.2-0.7
		c-0.1-0.2-0.2-0.4-0.4-0.6c-0.2-0.2-0.4-0.3-0.7-0.4c-0.3-0.1-0.6-0.2-1-0.2c-0.4,0-0.8,0.1-1.1,0.2c-0.3,0.1-0.6,0.2-0.8,0.4
		c-0.2,0.2-0.4,0.3-0.6,0.5c-0.2,0.2-0.3,0.3-0.4,0.4l-0.6-0.6c0.1-0.1,0.3-0.3,0.5-0.5c0.2-0.2,0.5-0.4,0.8-0.5
		c0.3-0.2,0.6-0.3,1-0.4c0.4-0.1,0.8-0.2,1.2-0.2c0.5,0,0.9,0.1,1.3,0.2s0.7,0.3,1,0.6c0.3,0.2,0.5,0.5,0.6,0.8
		c0.1,0.3,0.2,0.7,0.2,1c0,0.5-0.1,0.9-0.3,1.2c-0.2,0.3-0.5,0.6-0.8,0.8c-0.3,0.2-0.6,0.4-1,0.6c-0.4,0.2-0.7,0.3-1,0.4
		c-0.5,0.2-1,0.4-1.3,0.7c-0.3,0.2-0.6,0.5-0.8,0.8c-0.2,0.3-0.4,0.6-0.4,0.9s-0.1,0.6-0.2,0.9h6v0.8H195z"/>
</g>
<ellipse class="st5" cx="75" cy="24" rx="14.8" ry="14.9"/>
<g class="st3">
	<path class="st6" d="M78,28.1v0.8h-5.3v-0.8h2.4v-7.8c-0.1,0.1-0.2,0.3-0.5,0.4c-0.2,0.2-0.5,0.3-0.7,0.4s-0.5,0.3-0.8,0.4
		c-0.3,0.1-0.5,0.1-0.8,0.1v-0.8c0.3,0,0.6-0.1,0.9-0.2c0.3-0.2,0.6-0.3,0.9-0.5c0.3-0.2,0.5-0.4,0.7-0.5c0.2-0.2,0.3-0.3,0.3-0.3
		h0.9v8.8H78z"/>
</g>
</svg>
